<svg xmlns="http://www.w3.org/2000/svg" viewBox="0 0 24 24" width="100" height="100">
  <defs>
    <linearGradient id="gradient" x1="0%" y1="0%" x2="100%" y2="100%">
      <stop offset="0%" style="stop-color: #3366FF;" />
      <stop offset="100%" style="stop-color: #00FFFF;" />
    </linearGradient>
  </defs>
  <rect x="0" y="0" width="24" height="24" fill="#FFFFFF" />
  <path d="M21 6h-4l-4-4H7L3 6H0v4h3l2-2h8l2 2h3V6zM3 18h2v-2H3v2zm0-4h2v-2H3v2zm0-4h2v-2H3v2zm4 12h2v-2H7v2zm0-4h2v-2H7v2zm0-4h2V8H7v2zm4 12h2v-2h-2v2zm0-4h2v-2h-2v2zm0-4h2V8h-2v2zm10 8h-3v-3h-2v3h-3v2h3v3h2v-3h3v-2z" fill="url(#gradient)" />
</svg>
